<mxfile host="app.diagrams.net" agent="Mozilla/5.0 (Windows NT 10.0; Win64; x64) AppleWebKit/537.36 (KHTML, like Gecko) Chrome/136.0.0.0 Safari/537.36" version="27.0.9">
  <diagram name="Admin Use Case" id="c9vj3vydI6cqrTCFIGlC">
    <mxGraphModel dx="1489" dy="753" grid="1" gridSize="10" guides="1" tooltips="1" connect="1" arrows="1" fold="1" page="1" pageScale="1" pageWidth="827" pageHeight="1169" math="0" shadow="0">
      <root>
        <mxCell id="0" />
        <mxCell id="1" parent="0" />
        <mxCell id="oGW5x3K6z32pmOVN11H5-1" value="Quản trị viên" style="swimlane;whiteSpace=wrap;html=1;" vertex="1" parent="1">
          <mxGeometry x="130" y="20" width="930" height="820" as="geometry" />
        </mxCell>
        <mxCell id="oGW5x3K6z32pmOVN11H5-3" value="Đăng nhập" style="ellipse;whiteSpace=wrap;html=1;" vertex="1" parent="oGW5x3K6z32pmOVN11H5-1">
          <mxGeometry x="50" y="300" width="200" height="50" as="geometry" />
        </mxCell>
        <mxCell id="oGW5x3K6z32pmOVN11H5-4" value="Quản lý người dùng" style="ellipse;whiteSpace=wrap;html=1;" vertex="1" parent="oGW5x3K6z32pmOVN11H5-1">
          <mxGeometry x="370" y="110" width="200" height="50" as="geometry" />
        </mxCell>
        <mxCell id="oGW5x3K6z32pmOVN11H5-18" value="&lt;&lt;include&gt;&gt;" style="endArrow=none;dashed=1;" edge="1" parent="oGW5x3K6z32pmOVN11H5-1" source="oGW5x3K6z32pmOVN11H5-4" target="oGW5x3K6z32pmOVN11H5-3">
          <mxGeometry relative="1" as="geometry" />
        </mxCell>
        <mxCell id="oGW5x3K6z32pmOVN11H5-5" value="Thay đổi / Khóa người dùng" style="ellipse;whiteSpace=wrap;html=1;" vertex="1" parent="oGW5x3K6z32pmOVN11H5-1">
          <mxGeometry x="660" y="70" width="200" height="50" as="geometry" />
        </mxCell>
        <mxCell id="oGW5x3K6z32pmOVN11H5-28" value="&lt;&lt;extend&gt;&gt;" style="endArrow=none;dashed=1;" edge="1" parent="oGW5x3K6z32pmOVN11H5-1" source="oGW5x3K6z32pmOVN11H5-5" target="oGW5x3K6z32pmOVN11H5-4">
          <mxGeometry relative="1" as="geometry" />
        </mxCell>
        <mxCell id="oGW5x3K6z32pmOVN11H5-6" value="Quản lý công ty" style="ellipse;whiteSpace=wrap;html=1;" vertex="1" parent="oGW5x3K6z32pmOVN11H5-1">
          <mxGeometry x="415" y="230" width="200" height="50" as="geometry" />
        </mxCell>
        <mxCell id="oGW5x3K6z32pmOVN11H5-19" value="&lt;&lt;include&gt;&gt;" style="endArrow=none;dashed=1;" edge="1" parent="oGW5x3K6z32pmOVN11H5-1" source="oGW5x3K6z32pmOVN11H5-6" target="oGW5x3K6z32pmOVN11H5-3">
          <mxGeometry relative="1" as="geometry" />
        </mxCell>
        <mxCell id="oGW5x3K6z32pmOVN11H5-7" value="Chỉnh sửa thông tin công ty" style="ellipse;whiteSpace=wrap;html=1;" vertex="1" parent="oGW5x3K6z32pmOVN11H5-1">
          <mxGeometry x="660" y="190" width="200" height="50" as="geometry" />
        </mxCell>
        <mxCell id="oGW5x3K6z32pmOVN11H5-29" value="&lt;&lt;extend&gt;&gt;" style="endArrow=none;dashed=1;" edge="1" parent="oGW5x3K6z32pmOVN11H5-1" source="oGW5x3K6z32pmOVN11H5-7" target="oGW5x3K6z32pmOVN11H5-6">
          <mxGeometry relative="1" as="geometry" />
        </mxCell>
        <mxCell id="oGW5x3K6z32pmOVN11H5-8" value="Quản lý tin tuyển dụng" style="ellipse;whiteSpace=wrap;html=1;" vertex="1" parent="oGW5x3K6z32pmOVN11H5-1">
          <mxGeometry x="420" y="330" width="200" height="50" as="geometry" />
        </mxCell>
        <mxCell id="oGW5x3K6z32pmOVN11H5-20" value="&lt;&lt;include&gt;&gt;" style="endArrow=none;dashed=1;" edge="1" parent="oGW5x3K6z32pmOVN11H5-1" source="oGW5x3K6z32pmOVN11H5-8" target="oGW5x3K6z32pmOVN11H5-3">
          <mxGeometry relative="1" as="geometry" />
        </mxCell>
        <mxCell id="oGW5x3K6z32pmOVN11H5-9" value="Duyệt / Ẩn tin" style="ellipse;whiteSpace=wrap;html=1;" vertex="1" parent="oGW5x3K6z32pmOVN11H5-1">
          <mxGeometry x="700" y="330" width="200" height="50" as="geometry" />
        </mxCell>
        <mxCell id="oGW5x3K6z32pmOVN11H5-30" value="&lt;&lt;extend&gt;&gt;" style="endArrow=none;dashed=1;" edge="1" parent="oGW5x3K6z32pmOVN11H5-1" source="oGW5x3K6z32pmOVN11H5-9" target="oGW5x3K6z32pmOVN11H5-8">
          <mxGeometry relative="1" as="geometry" />
        </mxCell>
        <mxCell id="oGW5x3K6z32pmOVN11H5-21" value="&lt;&lt;include&gt;&gt;" style="endArrow=none;dashed=1;" edge="1" parent="oGW5x3K6z32pmOVN11H5-1" source="oGW5x3K6z32pmOVN11H5-10" target="oGW5x3K6z32pmOVN11H5-3">
          <mxGeometry relative="1" as="geometry" />
        </mxCell>
        <mxCell id="oGW5x3K6z32pmOVN11H5-11" value="Quản lý chứng chỉ" style="ellipse;whiteSpace=wrap;html=1;" vertex="1" parent="oGW5x3K6z32pmOVN11H5-1">
          <mxGeometry x="450" y="520" width="200" height="50" as="geometry" />
        </mxCell>
        <mxCell id="oGW5x3K6z32pmOVN11H5-22" value="&lt;&lt;include&gt;&gt;" style="endArrow=none;dashed=1;" edge="1" parent="oGW5x3K6z32pmOVN11H5-1" source="oGW5x3K6z32pmOVN11H5-11" target="oGW5x3K6z32pmOVN11H5-3">
          <mxGeometry relative="1" as="geometry" />
        </mxCell>
        <mxCell id="oGW5x3K6z32pmOVN11H5-12" value="Quản lý level kinh nghiệm" style="ellipse;whiteSpace=wrap;html=1;" vertex="1" parent="oGW5x3K6z32pmOVN11H5-1">
          <mxGeometry x="170" y="590" width="200" height="50" as="geometry" />
        </mxCell>
        <mxCell id="oGW5x3K6z32pmOVN11H5-23" value="&lt;&lt;include&gt;&gt;" style="endArrow=none;dashed=1;" edge="1" parent="oGW5x3K6z32pmOVN11H5-1" source="oGW5x3K6z32pmOVN11H5-12" target="oGW5x3K6z32pmOVN11H5-3">
          <mxGeometry relative="1" as="geometry" />
        </mxCell>
        <mxCell id="oGW5x3K6z32pmOVN11H5-13" value="Quản lý ngành nghề" style="ellipse;whiteSpace=wrap;html=1;" vertex="1" parent="oGW5x3K6z32pmOVN11H5-1">
          <mxGeometry x="450" y="610" width="200" height="50" as="geometry" />
        </mxCell>
        <mxCell id="oGW5x3K6z32pmOVN11H5-14" value="Quản lý vai trò &amp; quyền" style="ellipse;whiteSpace=wrap;html=1;" vertex="1" parent="oGW5x3K6z32pmOVN11H5-1">
          <mxGeometry x="160" y="150" width="200" height="50" as="geometry" />
        </mxCell>
        <mxCell id="oGW5x3K6z32pmOVN11H5-15" value="Xem thống kê" style="ellipse;whiteSpace=wrap;html=1;" vertex="1" parent="oGW5x3K6z32pmOVN11H5-1">
          <mxGeometry x="360" y="690" width="200" height="50" as="geometry" />
        </mxCell>
        <mxCell id="oGW5x3K6z32pmOVN11H5-24" value="&lt;&lt;include&gt;&gt;" style="endArrow=none;dashed=1;" edge="1" parent="oGW5x3K6z32pmOVN11H5-1" source="oGW5x3K6z32pmOVN11H5-13" target="oGW5x3K6z32pmOVN11H5-3">
          <mxGeometry relative="1" as="geometry" />
        </mxCell>
        <mxCell id="oGW5x3K6z32pmOVN11H5-25" value="&lt;&lt;include&gt;&gt;" style="endArrow=none;dashed=1;" edge="1" parent="oGW5x3K6z32pmOVN11H5-1" source="oGW5x3K6z32pmOVN11H5-14" target="oGW5x3K6z32pmOVN11H5-3">
          <mxGeometry relative="1" as="geometry" />
        </mxCell>
        <mxCell id="oGW5x3K6z32pmOVN11H5-26" value="&lt;&lt;include&gt;&gt;" style="endArrow=none;dashed=1;" edge="1" parent="oGW5x3K6z32pmOVN11H5-1" source="oGW5x3K6z32pmOVN11H5-15" target="oGW5x3K6z32pmOVN11H5-3">
          <mxGeometry relative="1" as="geometry" />
        </mxCell>
        <mxCell id="oGW5x3K6z32pmOVN11H5-10" value="Quản lý kỹ năng" style="ellipse;whiteSpace=wrap;html=1;" vertex="1" parent="oGW5x3K6z32pmOVN11H5-1">
          <mxGeometry x="470" y="430" width="200" height="50" as="geometry" />
        </mxCell>
        <mxCell id="oGW5x3K6z32pmOVN11H5-2" value="" style="shape=umlActor;whiteSpace=wrap;html=1;" vertex="1" parent="1">
          <mxGeometry x="35" y="300" width="40" height="80" as="geometry" />
        </mxCell>
        <mxCell id="oGW5x3K6z32pmOVN11H5-17" value="" style="endArrow=none;" edge="1" parent="1" source="oGW5x3K6z32pmOVN11H5-2" target="oGW5x3K6z32pmOVN11H5-3">
          <mxGeometry relative="1" as="geometry" />
        </mxCell>
        <mxCell id="oGW5x3K6z32pmOVN11H5-34" value="Quản trị viên" style="text;html=1;align=center;verticalAlign=middle;resizable=0;points=[];autosize=1;strokeColor=none;fillColor=none;" vertex="1" parent="1">
          <mxGeometry x="10" y="390" width="90" height="30" as="geometry" />
        </mxCell>
      </root>
    </mxGraphModel>
  </diagram>
</mxfile>
